<svg id="Layer_1" data-name="Layer 1" xmlns="http://www.w3.org/2000/svg" xmlns:xlink="http://www.w3.org/1999/xlink" width="237.31" height="69.86" viewBox="0 0 237.31 69.86"><defs><clipPath id="clip-path" transform="translate(-4.49 -3.68)"><rect width="245.5" height="76.25" style="fill:none"/></clipPath></defs><g style="clip-path:url(#clip-path)"><path d="M65.65,34.4V22.45a2.42,2.42,0,0,0-1.22-2.12l-10.5-6.11a2.43,2.43,0,0,0-2.46,0l-3.51,2V12.16A2.46,2.46,0,0,0,46.73,10L36.3,4a2.44,2.44,0,0,0-1.23-.33A2.47,2.47,0,0,0,33.84,4L23.41,10a2.45,2.45,0,0,0-1.22,2.13V16.3l-3.61-2.07a2.49,2.49,0,0,0-2.44,0l-10.43,6a2.43,2.43,0,0,0-1.22,2.13v12a2.46,2.46,0,0,0,1.23,2.13l3.62,2.08L5.71,40.7a2.45,2.45,0,0,0-1.22,2.13v12A2.45,2.45,0,0,0,5.71,57l10.46,6a2.49,2.49,0,0,0,2.44,0L22.18,61v4.1a2.46,2.46,0,0,0,1.23,2.13l10.43,6a2.44,2.44,0,0,0,1.23.33,2.4,2.4,0,0,0,1.22-.33l10.44-6A2.47,2.47,0,0,0,48,65.06V61L51.55,63A2.5,2.5,0,0,0,54,63l10.42-6a2.43,2.43,0,0,0,1.23-2.12v-12a2.46,2.46,0,0,0-1.23-2.13l-3.63-2.09,3.63-2.08a2.46,2.46,0,0,0,1.23-2.13M24.92,12.32,35.07,6.46l10.16,5.86v5.5l-9,5.21a2.27,2.27,0,0,1-1.12.3A2.24,2.24,0,0,1,34,23l-9-5.17Zm20.3,35v8.93l-7.67-4.41a5.53,5.53,0,0,0-1.12-.47V46.76l4.32-2.65A2.82,2.82,0,0,0,42.1,41.7l0-5.81,4.48-2.51a4.51,4.51,0,0,0,1.08.85l7.6,4.38L47.7,43a5,5,0,0,0-2.48,4.31M22.43,43l-7.61-4.37,7.61-4.38a5.22,5.22,0,0,0,1.08-.84L28,36V41.7a2.81,2.81,0,0,0,1.34,2.41l4.32,2.65v4.58a5.44,5.44,0,0,0-1.11.47l-7.67,4.42V47.29A5,5,0,0,0,22.43,43M45.34,31l-4.53,2.54A2.83,2.83,0,0,0,39.36,36l0,5.81-4.25,2.61-4.3-2.69V36a2.82,2.82,0,0,0-1.44-2.46L24.79,31a4.56,4.56,0,0,0,.13-1V21l7.66,4.39a5,5,0,0,0,2.49.67,4.91,4.91,0,0,0,2.48-.67L45.22,21v9a5.18,5.18,0,0,0,.12,1M7.22,34.25V22.52l10.14-5.84,4.83,2.76V29.93a2.22,2.22,0,0,1-1.11,1.93l-9,5.18ZM17.39,60.57,7.22,54.71V43l4.86-2.8,9,5.16a2.24,2.24,0,0,1,1.11,1.94V57.81ZM45.22,64.9,35.07,70.76,24.92,64.9V59.39l9-5.21a2.24,2.24,0,0,1,1.12-.3,2.27,2.27,0,0,1,1.12.3l9,5.2ZM62.92,43V54.71L52.78,60.57,48,57.8V47.29a2.25,2.25,0,0,1,1.12-1.94l9-5.16Zm0-8.75L58.05,37l-9-5.18A2.23,2.23,0,0,1,48,29.93V19.39l4.73-2.73,10.23,5.95Z" transform="translate(-4.49 -3.68)" style="fill:#5163ac"/><path d="M83.52,49.24h3.75c3,0,4.53,1.33,4.53,2.91S90.23,55,87.27,55H84.89v3.61H83.52Zm3.71,4.95c2.28,0,3.14-1.06,3.14-2s-.86-2.06-3.14-2.06H84.89v4.1Z" transform="translate(-4.49 -3.68)" style="fill:#3c456b"/><path d="M105.73,50.55a2.42,2.42,0,0,1,2.43-1.49,2.51,2.51,0,0,1,2.46,1.5l3.13,8.08h-1.37l-1.08-2.79H105L104,58.64h-1.38ZM111,55l-1.66-4.33a1.26,1.26,0,0,0-2.32,0L105.35,55Z" transform="translate(-4.49 -3.68)" style="fill:#3c456b"/><polygon points="146.59 46.67 142.76 46.67 142.76 45.56 151.81 45.56 151.81 46.67 147.97 46.67 147.97 54.96 146.59 54.96 146.59 46.67" style="fill:#3c456b"/><path d="M169.21,49.24h.54a1.71,1.71,0,0,1,1.3.59L177.26,57c0-.58-.08-1.18-.08-1.64v-6.1h1.38v9.4H178a1.74,1.74,0,0,1-1.29-.59l-6.22-7.14c0,.56.08,1.18.08,1.63v6.1h-1.38Z" transform="translate(-4.49 -3.68)" style="fill:#3c456b"/><path d="M192.08,51.57c0-1.4,1.24-2.33,3.88-2.33h3.59v1H196c-1.94,0-2.5.42-2.5,1.32v1.7H199v1h-5.49v1.9c0,.82.56,1.42,2.5,1.42h3.67v.72c0,.16-.16.27-.4.27H196c-2.62,0-3.88-.93-3.88-2.32Z" transform="translate(-4.49 -3.68)" style="fill:#3c456b"/><path d="M233.88,57.52a17.31,17.31,0,0,0,3.5.46c2.06,0,3-.72,3-1.77,0-2.31-6.51-1.71-6.51-4.66,0-1.57,1.72-2.49,4.24-2.49a12.51,12.51,0,0,1,3.21.46l-.36.78a12.09,12.09,0,0,0-2.85-.4c-1.82,0-2.78.6-2.78,1.65,0,2.09,6.51,1.65,6.51,4.66,0,1.58-1.66,2.6-4.41,2.6a19.12,19.12,0,0,1-3.76-.45Z" transform="translate(-4.49 -3.68)" style="fill:#3c456b"/><path d="M136.19,58.64l-2.73-4A2.58,2.58,0,0,0,135.12,52c0-1.83-1.43-2.73-4.25-2.73h-4.25v9.4H128V55h2.85a9.65,9.65,0,0,0,1.26-.07l2.5,3.7Zm-8.2-4.7V50.18h3.11c1.83,0,2.59.7,2.59,1.79s-.7,2-2.74,2Z" transform="translate(-4.49 -3.68)" style="fill:#3c456b"/><path d="M222.6,58.64l-2.73-4A2.59,2.59,0,0,0,221.54,52c0-1.83-1.44-2.73-4.26-2.73H213v9.4h1.38V55h2.84a9.65,9.65,0,0,0,1.26-.07l2.5,3.7Zm-8.19-4.7V50.18h3.1c1.83,0,2.59.7,2.59,1.79s-.7,2-2.73,2Z" transform="translate(-4.49 -3.68)" style="fill:#3c456b"/><path d="M114.33,34.17a8.42,8.42,0,0,0-1.2-16.75l-6.75,0H87a3.17,3.17,0,0,0-3.46,3.38V42.9h7.12V35.19H103a7.51,7.51,0,0,1,5.18,2.07l6.92,5.64h9.39s-8.64-7.38-10.19-8.73M90.64,29.55v-6.5h20.94c1.58,0,2.78,1.19,2.78,3.25a3,3,0,0,1-2.94,3.25H90.64Z" transform="translate(-4.49 -3.68)" style="fill:#3c456b"/><path d="M179.53,20.47a15.78,15.78,0,0,0-4.65-2.22,19.26,19.26,0,0,0-5.66-.81H155.38a19.26,19.26,0,0,0-5.66.81,15.91,15.91,0,0,0-4.65,2.22,11.36,11.36,0,0,0-3.21,3.4,8.11,8.11,0,0,0-1.21,4.28v4a8.17,8.17,0,0,0,1.21,4.31,11.36,11.36,0,0,0,3.21,3.4,16,16,0,0,0,4.65,2.22,19.26,19.26,0,0,0,5.66.81h13.84a19.26,19.26,0,0,0,5.66-.81,16.17,16.17,0,0,0,4.65-2.22,11.36,11.36,0,0,0,3.21-3.4A8.2,8.2,0,0,0,184,32.16v-4a8.13,8.13,0,0,0-1.22-4.28,11.36,11.36,0,0,0-3.21-3.4m-3.2,7.68v4a3.65,3.65,0,0,1-.51,1.87,5.45,5.45,0,0,1-1.52,1.63,8.51,8.51,0,0,1-2.38,1.16,9.68,9.68,0,0,1-2.94.44H155.62a9.68,9.68,0,0,1-2.94-.44,7.82,7.82,0,0,1-2.35-1.16,5.38,5.38,0,0,1-1.5-1.63,3.65,3.65,0,0,1-.51-1.87v-4a3.6,3.6,0,0,1,.51-1.84,5.76,5.76,0,0,1,1.51-1.66,7.89,7.89,0,0,1,2.34-1.17,10,10,0,0,1,2.94-.43H169a10,10,0,0,1,2.94.43,8.34,8.34,0,0,1,2.37,1.18,5.55,5.55,0,0,1,1.53,1.65,3.6,3.6,0,0,1,.51,1.84" transform="translate(-4.49 -3.68)" style="fill:#3c456b"/><path d="M231.6,34.17a8.42,8.42,0,0,0-1.2-16.75l-6.75,0h-19.4a3.17,3.17,0,0,0-3.46,3.38V42.9h7.12V35.19h12.4a7.49,7.49,0,0,1,5.17,2.07l6.92,5.64h9.39s-8.64-7.38-10.19-8.73m-23.69-4.62v-6.5h20.94c1.59,0,2.78,1.19,2.78,3.25a3,3,0,0,1-2.94,3.25H207.91Z" transform="translate(-4.49 -3.68)" style="fill:#3c456b"/></g></svg>